<?xml version="1.0" encoding="UTF-8"?>
<svg width="93px" height="93px" viewBox="0 0 93 93" version="1.1" xmlns="http://www.w3.org/2000/svg" xmlns:xlink="http://www.w3.org/1999/xlink">
    <!-- Generator: Sketch 55.1 (78136) - https://sketchapp.com -->
    <title>Fill 1</title>
    <desc>Created with Sketch.</desc>
    <g id="Symbols" stroke="none" stroke-width="1" fill="none" fill-rule="evenodd">
        <g id="logo" fill="#0064E0">
            <path d="M91.488,54.567 C92.058,51.668 92.409,49.271 92.409,46.205 C92.409,20.687 71.723,5.68434189e-14 46.204,5.68434189e-14 C20.686,5.68434189e-14 4.97379915e-14,20.687 4.97379915e-14,46.205 C4.97379915e-14,58.266 4.626,69.245 12.195,77.473 L14.244,12.898 L51.023,45.213 L45.071,48.472 L19.417,25.512 L19.275,41.953 L28.686,36.51 L32.825,40.309 L19.559,48.189 L18.432,83.13 C26.163,88.954 35.779,92.409 46.204,92.409 C65.875,92.409 82.664,80.111 89.33,62.789 L63.354,77.527 L65.551,37.134 L53.008,44.22 L48.33,40.11 L72.638,26.362 L70.441,66.614 L91.488,54.567 Z" id="Fill-1"></path>
        </g>
    </g>
</svg>